<?xml version="1.0" standalone="no"?>
<!DOCTYPE svg PUBLIC "-//W3C//DTD SVG 20010904//EN"
 "http://www.w3.org/TR/2001/REC-SVG-20010904/DTD/svg10.dtd">
<svg version="1.0" xmlns="http://www.w3.org/2000/svg"
 width="1275.000000pt" height="1280.000000pt" viewBox="0 0 1275.000000 1280.000000"
 preserveAspectRatio="xMidYMid meet">
<g transform="translate(0.000000,1280.000000) scale(0.100000,-0.100000)"
fill="#000000" stroke="none">
<path d="M7618 12780 c-299 -50 -524 -138 -753 -294 -113 -77 -268 -225 -351
-336 -69 -91 -198 -334 -233 -439 -113 -333 -80 -709 95 -1054 74 -148 159
-263 294 -398 190 -191 344 -285 613 -374 236 -78 441 -105 663 -86 427 37
762 187 1045 470 137 138 222 254 294 405 96 202 162 483 152 656 -13 236
-114 542 -247 744 -62 94 -194 242 -289 323 -227 193 -532 330 -836 373 -44 6
-107 15 -141 21 -86 13 -182 10 -306 -11z"/>
<path d="M2240 11622 c-84 -41 -28 -102 95 -102 53 0 78 5 103 20 70 43 11
100 -103 100 -37 0 -73 -7 -95 -18z"/>
<path d="M3455 10924 c-156 -17 -341 -68 -420 -116 -143 -87 -360 -292 -513
-485 -355 -449 -637 -978 -881 -1656 -89 -247 -348 -1033 -387 -1175 -35 -130
-41 -167 -25 -177 13 -7 147 162 311 391 201 284 221 308 672 851 579 697 852
1037 1111 1386 48 65 94 120 102 123 16 7 96 -36 360 -191 257 -152 321 -186
455 -243 349 -150 665 -244 990 -294 52 -8 171 -13 305 -13 207 1 226 2 320
28 163 44 254 94 350 190 70 70 90 98 133 187 29 58 59 135 69 172 l18 68 -65
66 c-330 336 -840 551 -1800 759 -440 95 -642 125 -885 130 -99 2 -198 1 -220
-1z"/>
<path d="M12674 10638 c-27 -23 -175 -166 -329 -318 -154 -152 -372 -357 -485
-456 -781 -681 -1253 -1108 -1505 -1363 -49 -50 -98 -91 -108 -91 -21 0 -104
60 -352 255 -213 168 -286 217 -463 319 -520 298 -1036 454 -1379 417 -301
-32 -472 -150 -607 -420 l-38 -74 39 -56 c58 -85 256 -279 372 -365 258 -191
600 -360 1131 -561 416 -157 753 -258 967 -290 132 -19 363 -19 473 0 145 25
324 124 544 299 121 95 409 382 525 521 327 393 550 746 898 1420 357 691 399
778 379 794 -10 8 -26 0 -62 -31z"/>
<path d="M4585 6979 c-118 -80 -206 -152 -282 -230 -86 -88 -109 -121 -156
-219 -32 -68 -41 -100 -45 -156 -9 -148 39 -303 144 -459 35 -53 64 -102 64
-108 0 -7 -43 -66 -96 -132 -303 -378 -625 -793 -789 -1015 -276 -376 -979
-1315 -1639 -2190 -1439 -1908 -1639 -2179 -1706 -2315 -33 -65 -60 -123 -60
-127 0 -12 62 16 134 59 214 131 1401 1159 2471 2143 165 152 498 456 740 676
916 834 1468 1369 1969 1909 82 88 155 161 163 163 7 2 68 -22 136 -54 225
-104 414 -173 882 -319 179 -56 425 -144 443 -158 16 -13 13 -17 -160 -235
-307 -386 -615 -808 -1211 -1657 -600 -855 -643 -914 -823 -1130 -92 -110
-211 -254 -264 -321 -93 -117 -230 -305 -230 -318 0 -3 15 -6 33 -6 36 0 253
133 537 331 201 140 605 423 875 613 749 527 1228 917 1675 1365 545 547 900
1053 991 1415 21 79 22 96 12 165 -60 406 -386 742 -1398 1438 -648 446 -1191
709 -1730 838 -181 44 -503 96 -582 95 -4 0 -48 -28 -98 -61z"/>
</g>
</svg>
